<mxfile host="app.diagrams.net" modified="2021-02-24T06:13:56.893Z" agent="5.0 (Windows)" etag="DbcTBmQ5LRToOdgVU3ve" version="14.4.2" type="github">
  <diagram id="n2r5j0L94F4HOVB7SW1q" name="Page-1">
    <mxGraphModel dx="942" dy="583" grid="1" gridSize="10" guides="1" tooltips="1" connect="1" arrows="1" fold="1" page="1" pageScale="1" pageWidth="827" pageHeight="1169" math="0" shadow="0">
      <root>
        <mxCell id="0" />
        <mxCell id="1" parent="0" />
        <mxCell id="Gc9mc4yc3vfrGPBwhND8-6" style="edgeStyle=orthogonalEdgeStyle;rounded=0;orthogonalLoop=1;jettySize=auto;html=1;entryX=0;entryY=0.5;entryDx=0;entryDy=0;" edge="1" parent="1" source="Gc9mc4yc3vfrGPBwhND8-1" target="Gc9mc4yc3vfrGPBwhND8-2">
          <mxGeometry relative="1" as="geometry" />
        </mxCell>
        <mxCell id="Gc9mc4yc3vfrGPBwhND8-7" style="edgeStyle=orthogonalEdgeStyle;rounded=0;orthogonalLoop=1;jettySize=auto;html=1;entryX=0;entryY=0.5;entryDx=0;entryDy=0;" edge="1" parent="1" source="Gc9mc4yc3vfrGPBwhND8-1" target="Gc9mc4yc3vfrGPBwhND8-3">
          <mxGeometry relative="1" as="geometry" />
        </mxCell>
        <mxCell id="Gc9mc4yc3vfrGPBwhND8-8" style="edgeStyle=orthogonalEdgeStyle;rounded=0;orthogonalLoop=1;jettySize=auto;html=1;entryX=0;entryY=0.5;entryDx=0;entryDy=0;" edge="1" parent="1" source="Gc9mc4yc3vfrGPBwhND8-1" target="Gc9mc4yc3vfrGPBwhND8-4">
          <mxGeometry relative="1" as="geometry" />
        </mxCell>
        <mxCell id="Gc9mc4yc3vfrGPBwhND8-9" style="edgeStyle=orthogonalEdgeStyle;rounded=0;orthogonalLoop=1;jettySize=auto;html=1;entryX=0;entryY=0.5;entryDx=0;entryDy=0;" edge="1" parent="1" source="Gc9mc4yc3vfrGPBwhND8-1" target="Gc9mc4yc3vfrGPBwhND8-5">
          <mxGeometry relative="1" as="geometry" />
        </mxCell>
        <mxCell id="Gc9mc4yc3vfrGPBwhND8-1" value="模态分析软件" style="rounded=1;whiteSpace=wrap;html=1;" vertex="1" parent="1">
          <mxGeometry x="170" y="200" width="120" height="30" as="geometry" />
        </mxCell>
        <mxCell id="Gc9mc4yc3vfrGPBwhND8-2" value="三维显示与建模" style="rounded=1;whiteSpace=wrap;html=1;" vertex="1" parent="1">
          <mxGeometry x="330" y="110" width="120" height="30" as="geometry" />
        </mxCell>
        <mxCell id="Gc9mc4yc3vfrGPBwhND8-3" value="模态分析" style="rounded=1;whiteSpace=wrap;html=1;" vertex="1" parent="1">
          <mxGeometry x="330" y="170" width="120" height="30" as="geometry" />
        </mxCell>
        <mxCell id="Gc9mc4yc3vfrGPBwhND8-4" value="振动仿真" style="rounded=1;whiteSpace=wrap;html=1;" vertex="1" parent="1">
          <mxGeometry x="330" y="230" width="120" height="30" as="geometry" />
        </mxCell>
        <mxCell id="Gc9mc4yc3vfrGPBwhND8-5" value="模态置信准则" style="rounded=1;whiteSpace=wrap;html=1;" vertex="1" parent="1">
          <mxGeometry x="330" y="290" width="120" height="30" as="geometry" />
        </mxCell>
      </root>
    </mxGraphModel>
  </diagram>
</mxfile>
